<?xml version="1.0" encoding="UTF-8"?>
<svg xmlns="http://www.w3.org/2000/svg" viewBox="0 0 1200 300" preserveAspectRatio="none">
  <defs>
    <linearGradient id="mountainGrad" x1="0%" y1="0%" x2="0%" y2="100%">
      <stop offset="0%" style="stop-color:#4a5568;stop-opacity:1" />
      <stop offset="100%" style="stop-color:#2d3748;stop-opacity:1" />
    </linearGradient>
  </defs>
  <polygon points="0,300 0,180 200,100 400,160 600,80 800,140 1000,100 1200,160 1200,300" fill="url(#mountainGrad)" opacity="0.9"/>
  <polygon points="0,300 0,220 150,180 350,200 550,150 750,180 950,160 1150,200 1200,220 1200,300" fill="#2d3748" opacity="0.7"/>
  <polygon points="0,300 0,250 100,230 300,240 500,210 700,230 900,220 1100,240 1200,250 1200,300" fill="#1a202c" opacity="0.8"/>
</svg>
